# xmcd
#
# Track frame offsets:
#	150
#	12221
#	27498
#	45937
#	58607
#	78499
#	96340
#	114715
#	132726
#	144243
#	157319
#	172318
#
# Disc length: 2553 seconds
#
# Revision: 0
# Processed by: cddbd v1.4PL0 Copyright (c) Steve Scherf et al.
# Submitted via: EasyCDDAExtractor 5.0.4.1
#
DISCID=aa09f70c
DTITLE=Sunrise - Leyenda
DYEAR=1900
DGENRE=
TTITLE0=Folk para mi Funeral
TTITLE1=Botas Viejas
TTITLE2=500 Años tarde
TTITLE3=Mapa de vida
TTITLE4=De mis fantasmas vos y yo
TTITLE5=Hay un folk esperando por vos
TTITLE6=If You're Gonna Play In Texas (You Gotta Have A Fiddle In The Band)
TTITLE7=Take Me Home, Country Roads
TTITLE8=Cotton Fields Back Home
TTITLE9=Thank God I'm A Country Boy
TTITLE10=Streets of London
TTITLE11=Mountain Music
EXTD=
EXTT0=
EXTT1=
EXTT2=
EXTT3=
EXTT4=
EXTT5=
EXTT6=
EXTT7=
EXTT8=
EXTT9=
EXTT10=
EXTT11=
PLAYORDER=
